<?xml version="1.0" encoding="utf-8" standalone="yes"?>
<!DOCTYPE svg PUBLIC "-//W3C//DTD SVG 1.1//EN" "http://www.w3.org/Graphics/SVG/1.1/DTD/svg11.dtd">
<svg width="854" height="676" viewBox="0 0 854 676" style="fill:none;stroke:none;fill-rule:evenodd;clip-rule:evenodd;stroke-linecap:round;stroke-linejoin:round;stroke-miterlimit:1.5;" version="1.1" xmlns="http://www.w3.org/2000/svg" xmlns:xlink="http://www.w3.org/1999/xlink"><style class="text-font-style fontImports" data-font-family="Roboto">@import url('https://fonts.googleapis.com/css2?family=Roboto:wght@400;700&amp;display=block');</style><rect id="" x="0" y="0" width="854" height="676" style="fill: #f7f7f7;"></rect><g id="items" style="isolation: isolate"><g id="blend" style="mix-blend-mode: normal"><g id="g-root-tf_18k201xd3gjy8-fill" data-item-order="-574248" transform="translate(-9, -9)"><g id="tf_18k201xd3gjy8-fill" stroke="none" fill="#f7f7f7"><g><path d="M 10 10L 862 10L 862 684L 10 684Z"></path></g></g></g><g id="g-root-ro_zrja2td3p0r3-fill" data-item-order="-23400" transform="translate(375, 186)"><g id="ro_zrja2td3p0r3-fill" stroke="none" fill="#f5f5f5"><g><path d="M 34 10L 142 10C 142 10 166 10 166 34L 166 136C 166 136 166 160 142 160L 34 160C 34 160 10 160 10 136L 10 34C 10 34 10 10 34 10"></path></g></g></g><g id="g-root-ro_4may11d3dt6r-fill" data-item-order="-16848" transform="translate(15, 123)"><g id="ro_4may11d3dt6r-fill" stroke="none" fill="#f4ffdc"><g><path d="M 22 10L 310 10C 310 10 322 10 322 22L 322 52C 322 52 322 64 310 64L 22 64C 22 64 10 64 10 52L 10 22C 10 22 10 10 22 10"></path></g></g></g><g id="g-root-ro_1urrwlhd3rsi5-fill" data-item-order="-12960" transform="translate(579, 123)"><g id="ro_1urrwlhd3rsi5-fill" stroke="none" fill="#faf0ff"><g><path d="M 22 10L 238 10C 238 10 250 10 250 22L 250 52C 250 52 250 64 238 64L 22 64C 22 64 10 64 10 52L 10 22C 10 22 10 10 22 10"></path></g></g></g><g id="g-root-ro_magl39d3cc9a-fill" data-item-order="-11016" transform="translate(351, 423)"><g id="ro_magl39d3cc9a-fill" stroke="none" fill="#ffeceb"><g><path d="M 22 10L 202 10C 202 10 214 10 214 22L 214 52C 214 52 214 64 202 64L 22 64C 22 64 10 64 10 52L 10 22C 10 22 10 10 22 10"></path></g></g></g><g id="g-root-ro_hwif2dd3ta14-fill" data-item-order="-10368" transform="translate(579, 273)"><g id="ro_hwif2dd3ta14-fill" stroke="none" fill="#fffbda"><g><path d="M 22 10L 190 10C 190 10 202 10 202 22L 202 52C 202 52 202 64 190 64L 22 64C 22 64 10 64 10 52L 10 22C 10 22 10 10 22 10"></path></g></g></g><g id="g-root-ro_4hb5c5d3gkjq-fill" data-item-order="-8424" transform="translate(171, 273)"><g id="ro_4hb5c5d3gkjq-fill" stroke="none" fill="#ffebf7"><g><path d="M 22 10L 154 10C 154 10 166 10 166 22L 166 52C 166 52 166 64 154 64L 22 64C 22 64 10 64 10 52L 10 22C 10 22 10 10 22 10"></path></g></g></g><g id="g-root-cu_v4un5xd3gmpu-fill" data-item-order="0" transform="translate(531, 150)"></g><g id="g-root-tx__mbpj9hd3cefj-fill" data-item-order="0" transform="translate(399, 489)"><g id="tx__mbpj9hd3cefj-fill" stroke="none" fill="#484848"><g><text style="font: 20px Roboto, sans-serif; white-space: pre;" font-size="20px" font-family="Roboto, sans-serif"><tspan x="15.52" y="34" dominant-baseline="ideographic">단일 서버</tspan></text></g></g></g><g id="g-root-tx_cli_hun2ytd3cd1j-fill" data-item-order="0" transform="translate(135, 189)"><g id="tx_cli_hun2ytd3cd1j-fill" stroke="none" fill="#484848"><g><text style="font: 20px Roboto, sans-serif; white-space: pre;" font-size="20px" font-family="Roboto, sans-serif"><tspan x="12.42" y="34" dominant-baseline="ideographic">CLI 명령어 조합</tspan></text></g></g></g><g id="g-root-cu_de73r9d3glxi-fill" data-item-order="0" transform="translate(285, 177)"></g><g id="g-root-cu_1uonmbpd3gkxt-fill" data-item-order="0" transform="translate(285, 177)"></g><g id="g-root-tx__hvw151d3cf7s-fill" data-item-order="0" transform="translate(423, 525)"><g id="tx__hvw151d3cf7s-fill" stroke="none" fill="#484848"><g><text style="font: 20px Roboto, sans-serif; white-space: pre;" font-size="20px" font-family="Roboto, sans-serif"><tspan x="15.52" y="34" dominant-baseline="ideographic">다중 서버</tspan></text></g></g></g><g id="g-root-cu_1lt0m2td3glqj-fill" data-item-order="0" transform="translate(603, 177)"></g><g id="g-root-cu_1hd73ydd3gmiu-fill" data-item-order="0" transform="translate(603, 177)"></g><g id="g-root-tx__3zjk5d3cc8x-fill" data-item-order="0" transform="translate(627, 189)"><g id="tx__3zjk5d3cc8x-fill" stroke="none" fill="#484848"><g><text style="font: 20px Roboto, sans-serif; white-space: pre;" font-size="20px" font-family="Roboto, sans-serif"><tspan x="13.04" y="34" dominant-baseline="ideographic">사용자 역할 설정</tspan></text></g></g></g><g id="g-root-tx__detkudd3cdts-fill" data-item-order="0" transform="translate(183, 225)"><g id="tx__detkudd3cdts-fill" stroke="none" fill="#484848"><g><text style="font: 20px Roboto, sans-serif; white-space: pre;" font-size="20px" font-family="Roboto, sans-serif"><tspan x="15.52" y="34" dominant-baseline="ideographic">조건 설정</tspan></text></g></g></g><g id="g-root-tx_rundeck_4kfirpd3gmiv-fill" data-item-order="0" transform="translate(297, 39)"><g id="tx_rundeck_4kfirpd3gmiv-fill" stroke="none" fill="#484848"><g><text style="font: 25px Roboto, sans-serif; white-space: pre;" font-size="25px" font-family="Roboto, sans-serif"><tspan x="13.24" y="43" dominant-baseline="ideographic">Rundeck의 주요 기능</tspan></text></g></g></g><g id="g-root-tx__1q9gladd3ccui-fill" data-item-order="0" transform="translate(627, 225)"><g id="tx__1q9gladd3ccui-fill" stroke="none" fill="#484848"><g><text style="font: 20px Roboto, sans-serif; white-space: pre;" font-size="20px" font-family="Roboto, sans-serif"><tspan x="17.04" y="34" dominant-baseline="ideographic">작업 실행 제한</tspan></text></g></g></g><g id="g-root-cu_1hbbop1d3gmq7-fill" data-item-order="0" transform="translate(327, 150)"></g><g id="g-root-cu_mbpj9hd3gk5m-fill" data-item-order="0" transform="translate(375, 477)"></g><g id="g-root-cu_hu0lvpd3gl54-fill" data-item-order="0" transform="translate(327, 286)"></g><g id="g-root-cu_m9u405d3gkct-fill" data-item-order="0" transform="translate(531, 286)"></g><g id="g-root-cu_hvw151d3gkxx-fill" data-item-order="0" transform="translate(375, 477)"></g><g id="g-root-tx_slack_zn61mtd3ccul-fill" data-item-order="0" transform="translate(171, 339)"><g id="tx_slack_zn61mtd3ccul-fill" stroke="none" fill="#484848"><g><text style="font: 20px Roboto, sans-serif; white-space: pre;" font-size="20px" font-family="Roboto, sans-serif"><tspan x="17.41" y="34" dominant-baseline="ideographic">Slack 연동</tspan></text></g></g></g><g id="g-root-cu_zmjkjpd3glqd-fill" data-item-order="0" transform="translate(285, 327)"></g><g id="g-root-cu_v6q2f9d3gmio-fill" data-item-order="0" transform="translate(285, 327)"></g><g id="g-root-cu_hu0lvpd3gl57-fill" data-item-order="0" transform="translate(453, 336)"></g><g id="g-root-cu_1cy02x1d3gk5c-fill" data-item-order="0" transform="translate(603, 327)"></g><g id="g-root-cu_142d2o5d3gky3-fill" data-item-order="0" transform="translate(603, 327)"></g><g id="g-root-tx__1ltn35xd3cdmr-fill" data-item-order="0" transform="translate(627, 339)"><g id="tx__1ltn35xd3cdmr-fill" stroke="none" fill="#484848"><g><text style="font: 20px Roboto, sans-serif; white-space: pre;" font-size="20px" font-family="Roboto, sans-serif"><tspan x="17.04" y="34" dominant-baseline="ideographic">특정 시간 실행</tspan></text></g></g></g><g id="g-root-tx_jenkins_v7cjidd3cdmu-fill" data-item-order="0" transform="translate(159, 375)"><g id="tx_jenkins_v7cjidd3cdmu-fill" stroke="none" fill="#484848"><g><text style="font: 20px Roboto, sans-serif; white-space: pre;" font-size="20px" font-family="Roboto, sans-serif"><tspan x="12.99" y="34" dominant-baseline="ideographic">Jenkins 연동</tspan></text></g></g></g><g id="g-root-tx__18i6ksld3cf7o-fill" data-item-order="0" transform="translate(627, 375)"><g id="tx__18i6ksld3cf7o-fill" stroke="none" fill="#484848"><g><text style="font: 20px Roboto, sans-serif; white-space: pre;" font-size="20px" font-family="Roboto, sans-serif"><tspan x="17.52" y="34" dominant-baseline="ideographic">주기적 실행</tspan></text></g></g></g><g id="g-root-tx__mcye9xd3rsp7-fill" data-item-order="1000000000" transform="translate(627, 138)"><g id="tx__mcye9xd3rsp7-fill" stroke="none" fill="#ba5de5"><g><text style="font: 20px Roboto, sans-serif; white-space: pre;" font-size="20px" font-family="Roboto, sans-serif"><tspan x="12.55" y="34" dominant-baseline="ideographic">역할 기반 접근 제어</tspan></text></g></g></g><g id="g-root-serv_1ly0blxd3p1ja-fill" data-item-order="1000000000" transform="translate(429, 210)"></g><g id="g-root-tx_rundeck_8cs05d3p05h-fill" data-item-order="1000000000" transform="translate(399, 264)"><g id="tx_rundeck_8cs05d3p05h-fill" stroke="none" fill="#969696"><g><text style="font: 20px Roboto, sans-serif; white-space: pre;" font-size="20px" font-family="Roboto, sans-serif"><tspan x="13.07" y="34" dominant-baseline="ideographic">Rundeck의 </tspan><tspan x="19.04" y="58" dominant-baseline="ideographic">주요 기능</tspan></text></g></g></g><g id="g-root-tx__hs56mdd3gm4k-fill" data-item-order="1000000000" transform="translate(183, 288)"><g id="tx__hs56mdd3gm4k-fill" stroke="none" fill="#de58a9"><g><text style="font: 20px Roboto, sans-serif; white-space: pre;" font-size="20px" font-family="Roboto, sans-serif"><tspan x="15.52" y="34" dominant-baseline="ideographic">웹훅 기능</tspan></text></g></g></g><g id="g-root-mesh_8wi6dhd3gmx9-fill" data-item-order="1000000000" transform="translate(285, 285)"></g><g id="g-root-lock_91hvwld3rua4-fill" data-item-order="1000000000" transform="translate(591, 135)"></g><g id="g-root-cale_v7yxfpd3t8g7-fill" data-item-order="1000000000" transform="translate(591, 285)"></g><g id="g-root-tx__18isypxd3ta12-fill" data-item-order="1000000000" transform="translate(627, 288)"><g id="tx__18isypxd3ta12-fill" stroke="none" fill="#e0cb15"><g><text style="font: 20px Roboto, sans-serif; white-space: pre;" font-size="20px" font-family="Roboto, sans-serif"><tspan x="13.52" y="34" dominant-baseline="ideographic">스케줄링 기능</tspan></text></g></g></g><g id="g-root-bloc_924g5hd3dsei-fill" data-item-order="1000000000" transform="translate(285, 135)"></g><g id="g-root-netw_v5h491d3cemd-fill" data-item-order="1000000000" transform="translate(363, 435)"></g><g id="g-root-tx__18gxmmdd3cd1g-fill" data-item-order="1000000000" transform="translate(399, 438)"><g id="tx__18gxmmdd3cd1g-fill" stroke="none" fill="#e55753"><g><text style="font: 20px Roboto, sans-serif; white-space: pre;" font-size="20px" font-family="Roboto, sans-serif"><tspan x="17.04" y="34" dominant-baseline="ideographic">서버 중앙 관리</tspan></text></g></g></g><g id="g-root-tx__mdkyitd3dqtl-fill" data-item-order="1000000000" transform="translate(27, 138)"><g id="tx__mdkyitd3dqtl-fill" stroke="none" fill="#92bd39"><g><text style="font: 20px Roboto, sans-serif; white-space: pre;" font-size="20px" font-family="Roboto, sans-serif"><tspan x="14.62" y="34" dominant-baseline="ideographic">워크플로우 생성, 실행, 관리</tspan></text></g></g></g><g id="g-root-tf_18k201xd3gjy8-stroke" data-item-order="-574248" transform="translate(-9, -9)"></g><g id="g-root-ro_zrja2td3p0r3-stroke" data-item-order="-23400" transform="translate(375, 186)"><g id="ro_zrja2td3p0r3-stroke" fill="none" stroke-linecap="round" stroke-linejoin="round" stroke-miterlimit="4" stroke="#484848" stroke-width="2"><g><path d="M 34 10L 142 10C 142 10 166 10 166 34L 166 136C 166 136 166 160 142 160L 34 160C 34 160 10 160 10 136L 10 34C 10 34 10 10 34 10"></path></g></g></g><g id="g-root-ro_4may11d3dt6r-stroke" data-item-order="-16848" transform="translate(15, 123)"><g id="ro_4may11d3dt6r-stroke" fill="none" stroke-linecap="round" stroke-linejoin="round" stroke-miterlimit="4" stroke="#92bd39" stroke-width="2"><g><path d="M 22 10L 310 10C 310 10 322 10 322 22L 322 52C 322 52 322 64 310 64L 22 64C 22 64 10 64 10 52L 10 22C 10 22 10 10 22 10"></path></g></g></g><g id="g-root-ro_1urrwlhd3rsi5-stroke" data-item-order="-12960" transform="translate(579, 123)"><g id="ro_1urrwlhd3rsi5-stroke" fill="none" stroke-linecap="round" stroke-linejoin="round" stroke-miterlimit="4" stroke="#ba5de5" stroke-width="2"><g><path d="M 22 10L 238 10C 238 10 250 10 250 22L 250 52C 250 52 250 64 238 64L 22 64C 22 64 10 64 10 52L 10 22C 10 22 10 10 22 10"></path></g></g></g><g id="g-root-ro_magl39d3cc9a-stroke" data-item-order="-11016" transform="translate(351, 423)"><g id="ro_magl39d3cc9a-stroke" fill="none" stroke-linecap="round" stroke-linejoin="round" stroke-miterlimit="4" stroke="#e55753" stroke-width="2"><g><path d="M 22 10L 202 10C 202 10 214 10 214 22L 214 52C 214 52 214 64 202 64L 22 64C 22 64 10 64 10 52L 10 22C 10 22 10 10 22 10"></path></g></g></g><g id="g-root-ro_hwif2dd3ta14-stroke" data-item-order="-10368" transform="translate(579, 273)"><g id="ro_hwif2dd3ta14-stroke" fill="none" stroke-linecap="round" stroke-linejoin="round" stroke-miterlimit="4" stroke="#e0cb15" stroke-width="2"><g><path d="M 22 10L 190 10C 190 10 202 10 202 22L 202 52C 202 52 202 64 190 64L 22 64C 22 64 10 64 10 52L 10 22C 10 22 10 10 22 10"></path></g></g></g><g id="g-root-ro_4hb5c5d3gkjq-stroke" data-item-order="-8424" transform="translate(171, 273)"><g id="ro_4hb5c5d3gkjq-stroke" fill="none" stroke-linecap="round" stroke-linejoin="round" stroke-miterlimit="4" stroke="#de58a9" stroke-width="2"><g><path d="M 22 10L 154 10C 154 10 166 10 166 22L 166 52C 166 52 166 64 154 64L 22 64C 22 64 10 64 10 52L 10 22C 10 22 10 10 22 10"></path></g></g></g><g id="g-root-cu_v4un5xd3gmpu-stroke" data-item-order="0" transform="translate(531, 150)"><g id="cu_v4un5xd3gmpu-stroke" fill="none" stroke-linecap="round" stroke-linejoin="round" stroke-miterlimit="4" stroke="#969696" stroke-width="2" stroke-dasharray="5.0, 7.0"><g><path d="M 10 96L 13 96L 13.1 96C 24.642748 96.000003 33.999998 86.642755 33.999998 75.100003L 34 75L 34 30.9C 33.999999 19.357249 43.357248 10.000001 54.899999 10.000002L 55 10L 58 10"></path></g></g></g><g id="g-root-tx__mbpj9hd3cefj-stroke" data-item-order="0" transform="translate(399, 489)"></g><g id="g-root-tx_cli_hun2ytd3cd1j-stroke" data-item-order="0" transform="translate(135, 189)"></g><g id="g-root-cu_de73r9d3glxi-stroke" data-item-order="0" transform="translate(285, 177)"><g id="cu_de73r9d3glxi-stroke" fill="none" stroke-linecap="round" stroke-linejoin="round" stroke-miterlimit="4" stroke="#969696" stroke-width="2" stroke-dasharray="5.0, 7.0"><g><path d="M 28 10L 28 22L 28 34L 19 34L 10 34"></path></g></g></g><g id="g-root-cu_1uonmbpd3gkxt-stroke" data-item-order="0" transform="translate(285, 177)"><g id="cu_1uonmbpd3gkxt-stroke" fill="none" stroke-linecap="round" stroke-linejoin="round" stroke-miterlimit="4" stroke="#969696" stroke-width="2" stroke-dasharray="5.0, 7.0"><g><path d="M 28 10L 28 17.5L 28 58C 27.999999 64.627415 22.627416 69.999998 16 69.999998L 15.9 70L 10 70"></path></g></g></g><g id="g-root-tx__hvw151d3cf7s-stroke" data-item-order="0" transform="translate(423, 525)"></g><g id="g-root-cu_1lt0m2td3glqj-stroke" data-item-order="0" transform="translate(603, 177)"><g id="cu_1lt0m2td3glqj-stroke" fill="none" stroke-linecap="round" stroke-linejoin="round" stroke-miterlimit="4" stroke="#969696" stroke-width="2" stroke-dasharray="5.0, 7.0"><g><path d="M 10 10L 10 22L 10 34L 19 34L 28 34"></path></g></g></g><g id="g-root-cu_1hd73ydd3gmiu-stroke" data-item-order="0" transform="translate(603, 177)"><g id="cu_1hd73ydd3gmiu-stroke" fill="none" stroke-linecap="round" stroke-linejoin="round" stroke-miterlimit="4" stroke="#969696" stroke-width="2" stroke-dasharray="5.0, 7.0"><g><path d="M 10 10L 10 17.5L 10 58C 10.000002 64.627417 15.372585 70 22.000002 69.999999L 22.1 70L 28 70"></path></g></g></g><g id="g-root-tx__3zjk5d3cc8x-stroke" data-item-order="0" transform="translate(627, 189)"></g><g id="g-root-tx__detkudd3cdts-stroke" data-item-order="0" transform="translate(183, 225)"></g><g id="g-root-tx_rundeck_4kfirpd3gmiv-stroke" data-item-order="0" transform="translate(297, 39)"></g><g id="g-root-tx__1q9gladd3ccui-stroke" data-item-order="0" transform="translate(627, 225)"></g><g id="g-root-cu_1hbbop1d3gmq7-stroke" data-item-order="0" transform="translate(327, 150)"><g id="cu_1hbbop1d3gmq7-stroke" fill="none" stroke-linecap="round" stroke-linejoin="round" stroke-miterlimit="4" stroke="#969696" stroke-width="2" stroke-dasharray="5.0, 7.0"><g><path d="M 58 96L 55 96L 54.9 96C 43.357245 95.999996 33.999997 86.642747 33.999997 75.099997L 34 75L 34 30.9C 33.999998 19.357248 24.64275 10 13.1 10L 13 10L 10 10"></path></g></g></g><g id="g-root-cu_mbpj9hd3gk5m-stroke" data-item-order="0" transform="translate(375, 477)"><g id="cu_mbpj9hd3gk5m-stroke" fill="none" stroke-linecap="round" stroke-linejoin="round" stroke-miterlimit="4" stroke="#969696" stroke-width="2" stroke-dasharray="5.0, 7.0"><g><path d="M 10 10L 10 22L 10 34L 19 34L 28 34"></path></g></g></g><g id="g-root-cu_hu0lvpd3gl54-stroke" data-item-order="0" transform="translate(327, 286)"><g id="cu_hu0lvpd3gl54-stroke" fill="none" stroke-linecap="round" stroke-linejoin="round" stroke-miterlimit="4" stroke="#969696" stroke-width="2" stroke-dasharray="5.0, 7.0"><g><path d="M 58 10L 55 10L 54.9 10C 51.522851 10.003929 47.800585 10.613027 43.900001 11.799999C 41.565213 12.503613 38.063122 14.343095 34 17.000001C 29.936878 19.656907 26.434787 21.496389 24.1 22.200001C 20.199417 23.386972 16.477151 23.99607 13.100001 24L 13 24L 10 24"></path></g></g></g><g id="g-root-cu_m9u405d3gkct-stroke" data-item-order="0" transform="translate(531, 286)"><g id="cu_m9u405d3gkct-stroke" fill="none" stroke-linecap="round" stroke-linejoin="round" stroke-miterlimit="4" stroke="#969696" stroke-width="2" stroke-dasharray="5.0, 7.0"><g><path d="M 10 10L 13 10L 13.1 10C 16.47715 10.00393 20.199416 10.613028 24.1 11.8C 26.434787 12.503612 29.936878 14.343094 34 16.999999C 38.063122 19.656905 41.565214 21.496387 43.900001 22.199999C 47.800584 23.386973 51.52285 23.996071 54.900001 24.000001L 55 24L 58 24"></path></g></g></g><g id="g-root-cu_hvw151d3gkxx-stroke" data-item-order="0" transform="translate(375, 477)"><g id="cu_hvw151d3gkxx-stroke" fill="none" stroke-linecap="round" stroke-linejoin="round" stroke-miterlimit="4" stroke="#969696" stroke-width="2" stroke-dasharray="5.0, 7.0"><g><path d="M 10 10L 10 17.5L 10 58C 10.000002 64.627417 15.372585 70 22.000002 69.999999L 22.1 70L 54 70"></path></g></g></g><g id="g-root-tx_slack_zn61mtd3ccul-stroke" data-item-order="0" transform="translate(171, 339)"></g><g id="g-root-cu_zmjkjpd3glqd-stroke" data-item-order="0" transform="translate(285, 327)"><g id="cu_zmjkjpd3glqd-stroke" fill="none" stroke-linecap="round" stroke-linejoin="round" stroke-miterlimit="4" stroke="#969696" stroke-width="2" stroke-dasharray="5.0, 7.0"><g><path d="M 28 10L 28 22L 28 34L 19 34L 10 34"></path></g></g></g><g id="g-root-cu_v6q2f9d3gmio-stroke" data-item-order="0" transform="translate(285, 327)"><g id="cu_v6q2f9d3gmio-stroke" fill="none" stroke-linecap="round" stroke-linejoin="round" stroke-miterlimit="4" stroke="#969696" stroke-width="2" stroke-dasharray="5.0, 7.0"><g><path d="M 28 10L 28 17.5L 28 58C 27.999999 64.627415 22.627416 69.999998 16 69.999998L 15.9 70L 10 70"></path></g></g></g><g id="g-root-cu_hu0lvpd3gl57-stroke" data-item-order="0" transform="translate(453, 336)"><g id="cu_hu0lvpd3gl57-stroke" fill="none" stroke-linecap="round" stroke-linejoin="round" stroke-miterlimit="4" stroke="#969696" stroke-width="2" stroke-dasharray="5.0, 7.0"><g><path d="M 10 10L 10 53.5L 10 97"></path></g></g></g><g id="g-root-cu_1cy02x1d3gk5c-stroke" data-item-order="0" transform="translate(603, 327)"><g id="cu_1cy02x1d3gk5c-stroke" fill="none" stroke-linecap="round" stroke-linejoin="round" stroke-miterlimit="4" stroke="#969696" stroke-width="2" stroke-dasharray="5.0, 7.0"><g><path d="M 10 10L 10 22L 10 34L 19 34L 28 34"></path></g></g></g><g id="g-root-cu_142d2o5d3gky3-stroke" data-item-order="0" transform="translate(603, 327)"><g id="cu_142d2o5d3gky3-stroke" fill="none" stroke-linecap="round" stroke-linejoin="round" stroke-miterlimit="4" stroke="#969696" stroke-width="2" stroke-dasharray="5.0, 7.0"><g><path d="M 10 10L 10 17.5L 10 58C 10.000002 64.627417 15.372585 70 22.000002 69.999999L 22.1 70L 28 70"></path></g></g></g><g id="g-root-tx__1ltn35xd3cdmr-stroke" data-item-order="0" transform="translate(627, 339)"></g><g id="g-root-tx_jenkins_v7cjidd3cdmu-stroke" data-item-order="0" transform="translate(159, 375)"></g><g id="g-root-tx__18i6ksld3cf7o-stroke" data-item-order="0" transform="translate(627, 375)"></g><g id="g-root-tx__mcye9xd3rsp7-stroke" data-item-order="1000000000" transform="translate(627, 138)"></g><g id="g-root-serv_1ly0blxd3p1ja-stroke" data-item-order="1000000000" transform="translate(429, 210)"><g id="serv_1ly0blxd3p1ja-stroke" fill="none" stroke-linecap="round" stroke-linejoin="round" stroke-miterlimit="4" stroke="#969696" stroke-width="2"><g><path d="M 11 21.104L 31 27.732L 31 56.903999L 11.132 50ZM 37 57L 57 50L 57 21.290001L 37 27.636ZM 33.98 23.07L 55.062 17.278L 33.98 11.282L 13.184 16.966L 33.98 23.07Z"></path></g></g></g><g id="g-root-tx_rundeck_8cs05d3p05h-stroke" data-item-order="1000000000" transform="translate(399, 264)"></g><g id="g-root-tx__hs56mdd3gm4k-stroke" data-item-order="1000000000" transform="translate(183, 288)"></g><g id="g-root-mesh_8wi6dhd3gmx9-stroke" data-item-order="1000000000" transform="translate(285, 285)"><g id="mesh_8wi6dhd3gmx9-stroke" fill="none" stroke-linecap="round" stroke-linejoin="round" stroke-miterlimit="4" stroke="#de58a9" stroke-width="2"><g><path d="M 13.75 33.375C 14.785538 33.375 15.625 32.5355 15.625 31.5C 15.625 30.464375 14.785538 29.625 13.75 29.625C 12.714462 29.625 11.875 30.464375 11.875 31.5C 11.875 32.5355 12.714462 33.375 13.75 33.375ZM 13.75 29.625L 13.75 27.125M 10 10M 15.499875 32.375L 16.874849 33.125M 25.000126 25.625C 26.035625 25.625 26.875126 24.7855 26.875126 23.75C 26.875126 22.7145 26.035625 21.875 25.000126 21.875C 23.9645 21.875 23.125126 22.7145 23.125126 23.75C 23.125126 24.7855 23.9645 25.625 25.000126 25.625ZM 25.000126 25.625L 25.000126 28.125M 10 10M 21.250074 21.875L 23.29825 22.959375M 10 10M 28.749874 21.875L 26.7285 23.012001M 25.000126 39.0625C 26.035625 39.0625 26.875126 38.223 26.875126 37.1875C 26.875126 36.152 26.035625 35.3125 25.000126 35.3125C 23.9645 35.3125 23.125126 36.152 23.125126 37.1875C 23.125126 38.223 23.9645 39.0625 25.000126 39.0625ZM 25.000126 35.3125L 25.000126 32.8125M 10 10M 21.250074 35.3125L 23.29825 36.396873M 10 10M 28.749874 35.3125L 26.723625 36.452251M 36.25 33.375C 37.2855 33.375 38.125 32.5355 38.125 31.5C 38.125 30.464375 37.2855 29.625 36.25 29.625C 35.2145 29.625 34.375 30.464375 34.375 31.5C 34.375 32.5355 35.2145 33.375 36.25 33.375ZM 36.25 29.625L 36.25 27.125M 10 10M 33.125 33.125L 34.599625 32.387749M 25.000126 14.6875C 26.035625 14.6875 26.875126 13.848038 26.875126 12.8125C 26.875126 11.776962 26.035625 10.9375 25.000126 10.9375C 23.9645 10.9375 23.125126 11.776962 23.125126 12.8125C 23.125126 13.848038 23.9645 14.6875 25.000126 14.6875ZM 10 10M 21.250074 14.687588L 23.349625 13.699575M 10 10M 28.749874 14.687563L 26.679749 13.652425M 13.75 20.375063C 14.785538 20.375063 15.625 19.535601 15.625 18.500063C 15.625 17.464525 14.785538 16.625063 13.75 16.625063C 12.714462 16.625063 11.875 17.464525 11.875 18.500063C 11.875 19.535601 12.714462 20.375063 13.75 20.375063ZM 13.75 20.375063L 13.75 22.875M 10 10M 15.429688 19.336849L 16.874849 20.125149M 10 10M 15.317388 17.4746L 16.874849 16.625063M 36.25 20.375063C 37.2855 20.375063 38.125 19.535601 38.125 18.500063C 38.125 17.464525 37.2855 16.625063 36.25 16.625063C 35.2145 16.625063 34.375 17.464525 34.375 18.500063C 34.375 19.535601 35.2145 20.375063 36.25 20.375063ZM 36.25 20.375063L 36.25 22.875M 10 10M 33.125 20.1252L 34.599625 19.387888M 34.721626 17.423388L 33.125 16.625063"></path></g></g></g><g id="g-root-lock_91hvwld3rua4-stroke" data-item-order="1000000000" transform="translate(591, 135)"><g id="lock_91hvwld3rua4-stroke" fill="none" stroke-linecap="round" stroke-linejoin="round" stroke-miterlimit="4" stroke="#ba5de5" stroke-width="2"><g><path d="M 34.96875 29.0625L 34.96875 30.9375M 34.96875 34.6875L 34.96875 35.625C 34.96875 36.660534 34.129288 37.5 33.09375 37.5L 32.15625 37.5M 28.40625 37.5L 25.59375 37.5M 14.96875 22.5L 14.96875 20.3125M 14.96875 16.5625L 14.96875 15.625C 14.96875 14.589466 15.808216 13.75 16.84375 13.75L 17.78125 13.75M 21.53125 13.75L 24.34375 13.75M 12.18625 30C 12.186251 32.071068 13.865183 33.75 15.93625 33.75C 18.007318 33.75 19.686251 32.071068 19.686251 30C 19.686251 27.928932 18.007318 26.25 15.93625 26.25C 13.865183 26.25 12.186251 27.928932 12.186251 30M 21.21875 39.375C 20.434807 37.129143 18.316246 35.624737 15.9375 35.624737C 13.558754 35.624737 11.440193 37.129143 10.65625 39.375M 29.96875 15.625L 37.46875 15.625C 37.46875 15.625 39.34375 15.625 39.34375 17.5L 39.34375 23.125C 39.34375 23.125 39.34375 25 37.46875 25L 29.96875 25C 29.96875 25 28.09375 25 28.09375 23.125L 28.09375 17.5C 28.09375 17.5 28.09375 15.625 29.96875 15.625M 33.71875 10.625L 33.71875 10.625C 31.647682 10.625 29.96875 12.303932 29.96875 14.375L 29.96875 15.625L 37.46875 15.625L 37.46875 14.375C 37.46875 12.303932 35.789818 10.625 33.71875 10.625ZM 33.71875 19.875C 33.977634 19.875 34.1875 20.084866 34.1875 20.34375C 34.1875 20.602634 33.977634 20.8125 33.71875 20.8125C 33.459866 20.8125 33.25 20.602634 33.25 20.34375C 33.25 20.084866 33.459866 19.875 33.71875 19.875L 33.71875 19.875"></path></g></g></g><g id="g-root-cale_v7yxfpd3t8g7-stroke" data-item-order="1000000000" transform="translate(591, 285)"><g id="cale_v7yxfpd3t8g7-stroke" fill="none" stroke-linecap="round" stroke-linejoin="round" stroke-miterlimit="4" stroke="#e0cb15" stroke-width="2"><g><path d="M 17.77375 19.6L 17.77375 15.7875C 17.775818 14.385471 18.91297 13.249998 20.315001 13.25L 36.833748 13.25C 38.235779 13.249998 39.372932 14.385471 39.375 15.787499L 39.375 32.306248C 39.375 33.709743 38.237244 34.8475 36.833748 34.8475L 29.845001 34.8475M 17.77375 18.328751L 39.375 18.328751M 28.574999 23.09375L 33.962502 23.09375L 29.6525 30.098751M 23.106249 10.705L 23.106249 15.495M 34.0425 10.705L 34.0425 15.495M 28.574999 10.705L 28.574999 15.495M 16.342501 30.717499C 16.342348 31.770399 17.19585 32.624023 18.248751 32.624023C 19.301649 32.624023 20.155151 31.770399 20.154999 30.717499C 20.155151 29.664598 19.301649 28.810974 18.248751 28.810974C 17.19585 28.810974 16.342348 29.664598 16.342501 30.717499M 19.8675 23.344999L 20.43 25.190001C 20.621696 25.82617 21.273666 26.204889 21.921249 26.05625L 23.796249 25.622499C 24.525072 25.454895 25.277885 25.782898 25.651394 26.430794C 26.024902 27.078688 25.931511 27.894524 25.421249 28.44125L 24.112499 29.852501C 23.660055 30.340902 23.660055 31.09535 24.112501 31.583752L 25.411251 33C 25.919384 33.546032 26.012579 34.359375 25.641125 35.006195C 25.269672 35.653011 24.520205 35.982433 23.7925 35.818748L 21.9175 35.385002C 21.271524 35.238472 20.622143 35.616096 20.43 36.25L 19.8675 38.096249C 19.653072 38.811131 18.995098 39.300709 18.248751 39.300709C 17.502401 39.300709 16.844427 38.811131 16.629999 38.096249L 16.067501 36.25C 15.880003 35.610489 15.227336 35.227211 14.577499 35.375L 12.7025 35.80875C 11.979334 35.96471 11.238271 35.635448 10.869296 34.99424C 10.500321 34.353027 10.588024 33.546867 11.08625 33L 12.39625 31.588749C 12.847489 31.099876 12.847489 30.346375 12.39625 29.8575L 11.08625 28.44125C 10.575989 27.894524 10.482596 27.078688 10.856105 26.430794C 11.229614 25.782898 11.982426 25.454895 12.71125 25.622499L 14.58625 26.05625C 15.233419 26.204149 15.884577 25.825581 16.07625 25.189999L 16.63875 23.344999C 16.857876 22.637348 17.512323 22.154892 18.253124 22.154892C 18.993927 22.154892 19.648375 22.637348 19.8675 23.344999Z"></path></g></g></g><g id="g-root-tx__18isypxd3ta12-stroke" data-item-order="1000000000" transform="translate(627, 288)"></g><g id="g-root-bloc_924g5hd3dsei-stroke" data-item-order="1000000000" transform="translate(285, 135)"><g id="bloc_924g5hd3dsei-stroke" fill="none" stroke-linecap="round" stroke-linejoin="round" stroke-miterlimit="4" stroke="#92bd39" stroke-width="2"><g><path d="M 19.6875 28.25C 19.6875 29 19.1875 29.5 18.4375 29.5L 12.1875 29.5C 11.4375 29.5 10.9375 29 10.9375 28.25L 10.9375 21.25C 10.9375 20.5 11.4375 20 12.1875 20L 18.4375 20C 19.1875 20 19.6875 20.5 19.6875 21.25L 19.6875 28.25ZM 32.1875 28.25C 32.1875 29 31.6875 29.5 30.9375 29.5L 24.6875 29.5C 23.9375 29.5 23.4375 29 23.4375 28.25L 23.4375 21.25C 23.4375 20.5 23.9375 20 24.6875 20L 30.9375 20C 31.6875 20 32.1875 20.5 32.1875 21.25L 32.1875 28.25ZM 14.437412 16.124989C 16.937412 13.124988 20.687401 11.25 24.937374 11.25C 28.937376 11.25 32.562374 13 35.062374 15.625M 36.0625 33.125C 33.5625 36.5 29.5625 38.75 25.0625 38.75C 20.562525 38.75 16.5625 36.5 14.0625 33.125M 19.6875 24.749874L 23.4375 24.749874M 32.1875 24.749874L 39.0625 24.749874L 36.5625 22.249912M 10 10M 39.0625 24.749874L 36.5625 27.249874M 15.312537 26.12875C 16.074038 26.12875 16.691362 25.511499 16.691362 24.75C 16.691362 23.988499 16.074038 23.371126 15.312537 23.371126C 14.551038 23.371126 13.933713 23.988499 13.933713 24.75C 13.933713 25.511499 14.551038 26.12875 15.312537 26.12875ZM 27.8125 26.12875C 28.573999 26.12875 29.191376 25.511499 29.191376 24.75C 29.191376 23.988499 28.573999 23.371126 27.8125 23.371126C 27.051001 23.371126 26.43375 23.988499 26.43375 24.75C 26.43375 25.511499 27.051001 26.12875 27.8125 26.12875Z"></path></g></g></g><g id="g-root-netw_v5h491d3cemd-stroke" data-item-order="1000000000" transform="translate(363, 435)"><g id="netw_v5h491d3cemd-stroke" fill="none" stroke-linecap="round" stroke-linejoin="round" stroke-miterlimit="4" stroke="#e55753" stroke-width="2"><g><path d="M 23.75 34.375C 23.75 35.065353 23.190357 35.625 22.5 35.625L 12.5 35.625C 11.809644 35.625 11.25 35.065353 11.25 34.375L 11.25 28.125C 11.25 27.434643 11.809644 26.875 12.5 26.875L 22.5 26.875C 23.190357 26.875 23.75 27.434643 23.75 28.125ZM 17.5 35.625L 17.5 39.375M 13.75 39.375L 21.25 39.375M 38.75 34.375C 38.75 35.065353 38.190353 35.625 37.5 35.625L 27.5 35.625C 26.809643 35.625 26.25 35.065353 26.25 34.375L 26.25 28.125C 26.25 27.434643 26.809643 26.875 27.5 26.875L 37.5 26.875C 38.190353 26.875 38.75 27.434643 38.75 28.125ZM 32.5 35.625L 32.5 39.375M 28.75 39.375L 36.25 39.375M 32.5 19.375C 32.5 20.065357 31.940355 20.625 31.25 20.625L 18.75 20.625C 18.059645 20.625 17.5 20.065357 17.5 19.375L 17.5 11.875C 17.5 11.184644 18.059645 10.625 18.75 10.625L 31.25 10.625C 31.940355 10.625 32.5 11.184644 32.5 11.875ZM 25 20.625L 25 24.375M 21.25 24.375L 28.75 24.375"></path></g></g></g><g id="g-root-tx__18gxmmdd3cd1g-stroke" data-item-order="1000000000" transform="translate(399, 438)"></g><g id="g-root-tx__mdkyitd3dqtl-stroke" data-item-order="1000000000" transform="translate(27, 138)"></g></g></g></svg>